<?xml version="1.0" encoding="utf-8"?>
<!-- Generator: Adobe Adobe Illustrator 24.2.0, SVG Export Plug-In . SVG Version: 6.00 Build 0)  -->
<svg version="1.1" id="Layer_1" xmlns="http://www.w3.org/2000/svg" xmlns:xlink="http://www.w3.org/1999/xlink" x="0px" y="0px"
	 viewBox="0 0 1920 1080" style="enable-background:new 0 0 1920 1080;" xml:space="preserve">
<style type="text/css">
	.st0{stroke-width:36.1665;stroke-miterlimit:10;}
	.st1{stroke-width:6.4296;stroke-linejoin:bevel;stroke-miterlimit:10;}
</style>
<path class="my-logo" d="M1060.31,216.86c-16.85-47.84-49.65-92.81-100.5-124.04c-53.1-32.61-120.17-48.95-187.56-51.44
	c-148.08-5.46-286.14,57.34-395.7,128.23C269.27,239.03,180.9,326.98,129.06,427.58C76.2,530.15,65.05,646.05,103.92,752.65
	c37.21,102.05,121.83,190.43,240.64,244.78c111.81,51.15,250.08,69.83,375.08,37.86c117.22-29.99,218.03-99.41,263.94-188.14
	c11.35-21.93,18.38-44.67,22.27-68.05c1.44-8.65-16.24-8.57-17.66,0c-15.22,91.62-94.39,171.27-196.9,216.82
	c-109.07,48.46-238.57,53.33-356.02,20.13c-120.7-34.12-221.13-104.67-278-193.16c-61.14-95.14-73.27-206.98-43.98-310.05
	c28.57-100.54,97-192.54,186.82-268.15c45.04-37.91,95.48-72.08,149.92-101.8c58.6-32,122.38-59.54,191.71-75
	c125.74-28.05,278.27-10.47,356.53,77.81c74.09,83.57,67.59,195.94,41.97,290.62c-14.93,55.17-38.33,108.99-70.12,159.77
	c-15.37,24.55-32.63,48.39-51.66,71.37c-16.49,19.91-39.8,48.58-74.45,49.43c-30.58,0.75-48.24-22.35-57.87-41.5
	c-13.23-26.31-20.61-54.89-28.82-82.32c-18.12-60.51-31.49-121.85-39.87-183.61c-4.05-29.83-6.91-59.73-8.73-89.69
	c-0.45-7.45-14.1-9.1-17-1.77c-37.46,94.51-74.95,189.01-112.43,283.51c-32.14-83.09-64.28-166.19-96.43-249.28
	c-2.89-7.47-15.6-5.29-16.65,1.73c-22.57,150.35-45.38,300.67-67.57,451.05c-6.3,42.66-12.53,85.32-18.8,127.97
	c-1.13,7.68,14.44,7.58,15.6,0c23.11-150.32,45.75-300.69,68.44-451.05c4.82-31.9,9.62-63.81,14.42-95.71l92.64,239.82
	c2.43,6.28,14.01,6.22,16.48,0c35.61-89.64,71.23-179.28,106.85-268.92c4.83,53.42,13.12,106.63,25.05,159.4
	c7.29,32.22,15.92,64.27,25.86,96.07c8.49,27.15,15.62,56.15,32.29,81.21c11.94,17.95,31.23,34.18,58.63,36.46
	c31.71,2.64,57.86-14.33,76.42-32.18c22.73-21.87,41.05-47.04,58.14-71.69c18.56-26.77,34.82-54.48,48.78-82.85
	c27.1-55.09,44.93-112.74,53.09-171.31C1079.72,320.6,1078.04,267.21,1060.31,216.86z"/>
<ellipse class="my-logo" cx="1095.87" cy="941.35" rx="54.98" ry="42.29"/>
<ellipse class="my-logo" cx="1260.82" cy="941.35" rx="54.98" ry="42.29"/>
<ellipse class="my-logo" cx="1425.77" cy="941.35" rx="54.98" ry="42.29"/>
</svg>
